<svg xmlns="http://www.w3.org/2000/svg" width="980" height="460" viewBox="0 0 980 460" role="img" aria-labelledby="title desc">
  <title id="title">mesh-bigram search planning</title>
  <desc id="desc">zlg derives compact selectors from a search pattern, compares them to each chunk summary, skips impossible chunks and decodes candidate chunks.</desc>
  <rect width="980" height="460" fill="#fbfbfb"/>
  <text x="40" y="42" font-family="Arial, sans-serif" font-size="24" font-weight="700" fill="#222">Mesh-bigram search summary</text>
  <text x="40" y="70" font-family="Arial, sans-serif" font-size="14" fill="#555">A planner turns the pattern into compact byte-pair clues, checks chunk summaries first, then decodes only likely chunks.</text>

  <rect x="40" y="120" width="160" height="80" rx="14" fill="#eef4ff" stroke="#6b8fd6" stroke-width="2"/>
  <text x="58" y="154" font-family="Arial, sans-serif" font-size="16" font-weight="700" fill="#203864">Pattern</text>
  <text x="58" y="178" font-family="Arial, sans-serif" font-size="13" fill="#333">error|warn|fail</text>

  <rect x="255" y="105" width="190" height="110" rx="14" fill="#f8f4ff" stroke="#9c7bd6" stroke-width="2"/>
  <text x="275" y="140" font-family="Arial, sans-serif" font-size="16" font-weight="700" fill="#4b2e83">Planner</text>
  <text x="275" y="166" font-family="Arial, sans-serif" font-size="13" fill="#333">extracts selectors</text>
  <text x="275" y="188" font-family="Arial, sans-serif" font-size="13" fill="#333">from bytes/bigrams</text>

  <g transform="translate(520,80)">
    <rect x="0" y="0" width="180" height="80" rx="14" fill="#fff0f0" stroke="#d66b6b" stroke-width="2"/>
    <text x="18" y="33" font-family="Arial, sans-serif" font-size="15" font-weight="700" fill="#7a2727">Chunk A</text>
    <text x="18" y="58" font-family="Arial, sans-serif" font-size="13" fill="#333">summary misses</text>
  </g>
  <g transform="translate(520,190)">
    <rect x="0" y="0" width="180" height="80" rx="14" fill="#f0fff4" stroke="#54a36a" stroke-width="2"/>
    <text x="18" y="33" font-family="Arial, sans-serif" font-size="15" font-weight="700" fill="#225d33">Chunk B</text>
    <text x="18" y="58" font-family="Arial, sans-serif" font-size="13" fill="#333">summary may match</text>
  </g>
  <g transform="translate(520,300)">
    <rect x="0" y="0" width="180" height="80" rx="14" fill="#fff0f0" stroke="#d66b6b" stroke-width="2"/>
    <text x="18" y="33" font-family="Arial, sans-serif" font-size="15" font-weight="700" fill="#7a2727">Chunk C</text>
    <text x="18" y="58" font-family="Arial, sans-serif" font-size="13" fill="#333">summary misses</text>
  </g>

  <rect x="770" y="190" width="160" height="80" rx="14" fill="#f0fff4" stroke="#54a36a" stroke-width="2"/>
  <text x="790" y="223" font-family="Arial, sans-serif" font-size="15" font-weight="700" fill="#225d33">Decode</text>
  <text x="790" y="248" font-family="Arial, sans-serif" font-size="13" fill="#333">verify + match</text>

  <path d="M200 160 L255 160" stroke="#777" stroke-width="2" marker-end="url(#arrow)"/>
  <path d="M445 160 L520 120" stroke="#777" stroke-width="2" marker-end="url(#arrow)"/>
  <path d="M445 160 L520 230" stroke="#777" stroke-width="2" marker-end="url(#arrow)"/>
  <path d="M445 160 L520 340" stroke="#777" stroke-width="2" marker-end="url(#arrow)"/>
  <path d="M700 230 L770 230" stroke="#777" stroke-width="2" marker-end="url(#arrow)"/>
  <text x="720" y="150" font-family="Arial, sans-serif" font-size="13" fill="#7a2727">skip</text>
  <text x="720" y="360" font-family="Arial, sans-serif" font-size="13" fill="#7a2727">skip</text>
  <text x="720" y="215" font-family="Arial, sans-serif" font-size="13" fill="#225d33">candidate</text>

  <text x="40" y="425" font-family="Arial, sans-serif" font-size="14" fill="#333">Summaries can reject impossible chunks quickly. They are filters, not final proof: candidate chunks are still decoded and matched normally.</text>
  <defs>
    <marker id="arrow" markerWidth="8" markerHeight="8" refX="8" refY="4" orient="auto">
      <path d="M0,0 L8,4 L0,8 Z" fill="#777"/>
    </marker>
  </defs>
</svg>
